<svg xmlns="http://www.w3.org/2000/svg" viewBox="0 0 128 64" width="128" height="64"><defs><g id="frame-0" transform="translate(0, 0)"><path d="M42,34 Q50,24 52,18"
            stroke="#beaac6" stroke-width="2.5" fill="none" stroke-linecap="round"/><ellipse cx="32" cy="36" rx="12" ry="10" fill="#c8b4a0"/><ellipse cx="32" cy="38" rx="7" ry="6" fill="#dcbcac"/><rect x="22" y="40" width="4" height="7" rx="2" fill="#c8b4a0" transform="rotate(-15,24,40)"/><rect x="38" y="40" width="4" height="7" rx="2" fill="#c8b4a0" transform="rotate(15,40,40)"/><circle cx="23" cy="47" r="2.5" fill="#d2c3af"/><circle cx="41" cy="47" r="2.5" fill="#d2c3af"/><g transform="rotate(0, 32, 26)"><polygon points="23,19 19,8 27,16" fill="#c8b4a0"/><polygon points="23,18 21,11 25,17" fill="#e6aaaa"/><polygon points="41,19 45,8 37,16" fill="#c8b4a0"/><polygon points="41,18 43,11 39,17" fill="#e6aaaa"/><ellipse cx="32" cy="26" rx="11" ry="10" fill="#c8b4a0"/><ellipse cx="28" cy="25" rx="2.2" ry="2.5" fill="#3c3228"/><ellipse cx="36" cy="25" rx="2.2" ry="2.5" fill="#3c3228"/><circle cx="28.5" cy="24.5" r="0.8" fill="#ffffff"/><circle cx="36.5" cy="24.5" r="0.8" fill="#ffffff"/><circle cx="32" cy="28" r="1.2" fill="#dc8282"/><path d="M30,31 Q32,29.5 34,31"
            stroke="#b47878" stroke-width="1" fill="none"/><line x1="19" y1="27" x2="29" y2="28" stroke="rgba(100,90,80,0.7)" stroke-width="0.6"/><line x1="19" y1="29" x2="29" y2="29" stroke="rgba(100,90,80,0.7)" stroke-width="0.6"/><line x1="45" y1="27" x2="35" y2="28" stroke="rgba(100,90,80,0.7)" stroke-width="0.6"/><line x1="45" y1="29" x2="35" y2="29" stroke="rgba(100,90,80,0.7)" stroke-width="0.6"/><ellipse cx="25" cy="28" rx="3" ry="2" fill="rgba(255,180,180,0.5)"/><ellipse cx="39" cy="28" rx="3" ry="2" fill="rgba(255,180,180,0.5)"/></g></g><g id="frame-1" transform="translate(64, 0)"><path d="M42,34 Q50,24 52,18"
            stroke="#beaac6" stroke-width="2.5" fill="none" stroke-linecap="round"/><ellipse cx="32" cy="36" rx="12" ry="10" fill="#c8b4a0"/><ellipse cx="32" cy="38" rx="7" ry="6" fill="#dcbcac"/><rect x="22" y="40" width="4" height="7" rx="2" fill="#c8b4a0" transform="rotate(-15,24,40)"/><rect x="38" y="40" width="4" height="7" rx="2" fill="#c8b4a0" transform="rotate(15,40,40)"/><circle cx="23" cy="47" r="2.5" fill="#d2c3af"/><circle cx="41" cy="47" r="2.5" fill="#d2c3af"/><g transform="rotate(-1.2246467991473533e-15, 32, 26)"><polygon points="23,19 19,8 27,16" fill="#c8b4a0"/><polygon points="23,18 21,11 25,17" fill="#e6aaaa"/><polygon points="41,19 45,8 37,16" fill="#c8b4a0"/><polygon points="41,18 43,11 39,17" fill="#e6aaaa"/><ellipse cx="32" cy="26" rx="11" ry="10" fill="#c8b4a0"/><ellipse cx="28" cy="25" rx="2.2" ry="2.5" fill="#3c3228"/><ellipse cx="36" cy="25" rx="2.2" ry="2.5" fill="#3c3228"/><circle cx="28.5" cy="24.5" r="0.8" fill="#ffffff"/><circle cx="36.5" cy="24.5" r="0.8" fill="#ffffff"/><circle cx="32" cy="28" r="1.2" fill="#dc8282"/><path d="M30,31 Q32,29.5 34,31"
            stroke="#b47878" stroke-width="1" fill="none"/><line x1="19" y1="27" x2="29" y2="28" stroke="rgba(100,90,80,0.7)" stroke-width="0.6"/><line x1="19" y1="29" x2="29" y2="29" stroke="rgba(100,90,80,0.7)" stroke-width="0.6"/><line x1="45" y1="27" x2="35" y2="28" stroke="rgba(100,90,80,0.7)" stroke-width="0.6"/><line x1="45" y1="29" x2="35" y2="29" stroke="rgba(100,90,80,0.7)" stroke-width="0.6"/><ellipse cx="25" cy="28" rx="3" ry="2" fill="rgba(255,180,180,0.5)"/><ellipse cx="39" cy="28" rx="3" ry="2" fill="rgba(255,180,180,0.5)"/></g></g></defs><use href="#frame-0"/><use href="#frame-1"/></svg>