<svg xmlns="http://www.w3.org/2000/svg" viewBox="0 0 256 64" width="256" height="64"><defs><g id="frame-0" transform="translate(0, 0)"><path d="M42,34 Q52.52441295442369,24 54.01953036353895,18"
            stroke="#beaac6" stroke-width="2.5" fill="none" stroke-linecap="round"/><ellipse cx="32" cy="36" rx="12" ry="10" fill="#c8b4a0"/><ellipse cx="32" cy="38" rx="7" ry="6" fill="#dcbcac"/><rect x="25" y="41" width="4" height="7" rx="2" fill="#c8b4a0"/><rect x="35" y="41" width="4" height="7" rx="2" fill="#c8b4a0"/><circle cx="27" cy="48" r="2.5" fill="#d2c3af"/><circle cx="37" cy="48" r="2.5" fill="#d2c3af"/><g transform="rotate(0, 32, 26)"><polygon points="23,19 19,8 27,16" fill="#c8b4a0"/><polygon points="23,18 21,11 25,17" fill="#e6aaaa"/><polygon points="41,19 45,8 37,16" fill="#c8b4a0"/><polygon points="41,18 43,11 39,17" fill="#e6aaaa"/><ellipse cx="32" cy="26" rx="11" ry="10" fill="#c8b4a0"/><ellipse cx="28" cy="25" rx="2.2" ry="2.5" fill="#3c3228"/><ellipse cx="36" cy="25" rx="2.2" ry="2.5" fill="#3c3228"/><circle cx="28.5" cy="24.5" r="0.8" fill="#ffffff"/><circle cx="36.5" cy="24.5" r="0.8" fill="#ffffff"/><circle cx="32" cy="28" r="1.2" fill="#dc8282"/><path d="M30,31 Q32,29.5 34,31"
            stroke="#b47878" stroke-width="1" fill="none"/><line x1="19" y1="27" x2="29" y2="28" stroke="rgba(100,90,80,0.7)" stroke-width="0.6"/><line x1="19" y1="29" x2="29" y2="29" stroke="rgba(100,90,80,0.7)" stroke-width="0.6"/><line x1="45" y1="27" x2="35" y2="28" stroke="rgba(100,90,80,0.7)" stroke-width="0.6"/><line x1="45" y1="29" x2="35" y2="29" stroke="rgba(100,90,80,0.7)" stroke-width="0.6"/><ellipse cx="25" cy="28" rx="3" ry="2" fill="rgba(255,180,180,0.5)"/><ellipse cx="39" cy="28" rx="3" ry="2" fill="rgba(255,180,180,0.5)"/></g></g><g id="frame-1" transform="translate(64, 0)"><path d="M42,35.29903810567666 Q50.14154009060351,25.299038105676658 52.11323207248281,19.299038105676658"
            stroke="#beaac6" stroke-width="2.5" fill="none" stroke-linecap="round"/><ellipse cx="32" cy="37.29903810567666" rx="12" ry="10" fill="#c8b4a0"/><ellipse cx="32" cy="39.29903810567666" rx="7" ry="6" fill="#dcbcac"/><rect x="25" y="42.29903810567666" width="4" height="7" rx="2" fill="#c8b4a0"/><rect x="35" y="42.29903810567666" width="4" height="7" rx="2" fill="#c8b4a0"/><circle cx="27" cy="49.29903810567666" r="2.5" fill="#d2c3af"/><circle cx="37" cy="49.29903810567666" r="2.5" fill="#d2c3af"/><g transform="rotate(0, 32, 27.299038105676658)"><polygon points="23,20.299038105676658 19,9.299038105676658 27,17.299038105676658" fill="#c8b4a0"/><polygon points="23,19.299038105676658 21,12.299038105676658 25,18.299038105676658" fill="#e6aaaa"/><polygon points="41,20.299038105676658 45,9.299038105676658 37,17.299038105676658" fill="#c8b4a0"/><polygon points="41,19.299038105676658 43,12.299038105676658 39,18.299038105676658" fill="#e6aaaa"/><ellipse cx="32" cy="27.299038105676658" rx="11" ry="10" fill="#c8b4a0"/><ellipse cx="28" cy="26.299038105676658" rx="2.2" ry="2.2834936490538906" fill="#3c3228"/><ellipse cx="36" cy="26.299038105676658" rx="2.2" ry="2.2834936490538906" fill="#3c3228"/><circle cx="28.5" cy="25.799038105676658" r="0.8" fill="#ffffff"/><circle cx="36.5" cy="25.799038105676658" r="0.8" fill="#ffffff"/><circle cx="32" cy="29.299038105676658" r="1.2" fill="#dc8282"/><path d="M30,32.29903810567666 Q32,30.799038105676658 34,32.29903810567666"
            stroke="#b47878" stroke-width="1" fill="none"/><line x1="19" y1="28.299038105676658" x2="29" y2="29.299038105676658" stroke="rgba(100,90,80,0.7)" stroke-width="0.6"/><line x1="19" y1="30.299038105676658" x2="29" y2="30.299038105676658" stroke="rgba(100,90,80,0.7)" stroke-width="0.6"/><line x1="45" y1="28.299038105676658" x2="35" y2="29.299038105676658" stroke="rgba(100,90,80,0.7)" stroke-width="0.6"/><line x1="45" y1="30.299038105676658" x2="35" y2="30.299038105676658" stroke="rgba(100,90,80,0.7)" stroke-width="0.6"/><ellipse cx="25" cy="29.299038105676658" rx="3" ry="2" fill="rgba(255,180,180,0.5)"/><ellipse cx="39" cy="29.299038105676658" rx="3" ry="2" fill="rgba(255,180,180,0.5)"/></g></g><g id="frame-2" transform="translate(128, 0)"><path d="M42,32.70096189432334 Q47.3340469549728,22.700961894323342 49.867237563978236,16.700961894323342"
            stroke="#beaac6" stroke-width="2.5" fill="none" stroke-linecap="round"/><ellipse cx="32" cy="34.70096189432334" rx="12" ry="10" fill="#c8b4a0"/><ellipse cx="32" cy="36.70096189432334" rx="7" ry="6" fill="#dcbcac"/><rect x="25" y="39.70096189432334" width="4" height="7" rx="2" fill="#c8b4a0"/><rect x="35" y="39.70096189432334" width="4" height="7" rx="2" fill="#c8b4a0"/><circle cx="27" cy="46.70096189432334" r="2.5" fill="#d2c3af"/><circle cx="37" cy="46.70096189432334" r="2.5" fill="#d2c3af"/><g transform="rotate(0, 32, 24.700961894323342)"><polygon points="23,17.700961894323342 19,6.700961894323342 27,14.700961894323342" fill="#c8b4a0"/><polygon points="23,16.700961894323342 21,9.700961894323342 25,15.700961894323342" fill="#e6aaaa"/><polygon points="41,17.700961894323342 45,6.700961894323342 37,14.700961894323342" fill="#c8b4a0"/><polygon points="41,16.700961894323342 43,9.700961894323342 39,15.700961894323342" fill="#e6aaaa"/><ellipse cx="32" cy="24.700961894323342" rx="11" ry="10" fill="#c8b4a0"/><ellipse cx="28" cy="23.700961894323342" rx="2.2" ry="2.7165063509461094" fill="#3c3228"/><ellipse cx="36" cy="23.700961894323342" rx="2.2" ry="2.7165063509461094" fill="#3c3228"/><circle cx="28.5" cy="23.200961894323342" r="0.8" fill="#ffffff"/><circle cx="36.5" cy="23.200961894323342" r="0.8" fill="#ffffff"/><circle cx="32" cy="26.700961894323342" r="1.2" fill="#dc8282"/><path d="M30,29.700961894323342 Q32,28.200961894323342 34,29.700961894323342"
            stroke="#b47878" stroke-width="1" fill="none"/><line x1="19" y1="25.700961894323342" x2="29" y2="26.700961894323342" stroke="rgba(100,90,80,0.7)" stroke-width="0.6"/><line x1="19" y1="27.700961894323342" x2="29" y2="27.700961894323342" stroke="rgba(100,90,80,0.7)" stroke-width="0.6"/><line x1="45" y1="25.700961894323342" x2="35" y2="26.700961894323342" stroke="rgba(100,90,80,0.7)" stroke-width="0.6"/><line x1="45" y1="27.700961894323342" x2="35" y2="27.700961894323342" stroke="rgba(100,90,80,0.7)" stroke-width="0.6"/><ellipse cx="25" cy="26.700961894323342" rx="3" ry="2" fill="rgba(255,180,180,0.5)"/><ellipse cx="39" cy="26.700961894323342" rx="3" ry="2" fill="rgba(255,180,180,0.5)"/></g></g><g id="frame-3" transform="translate(192, 0)"><path d="M42,34 Q52.52441295442369,24 54.01953036353895,18"
            stroke="#beaac6" stroke-width="2.5" fill="none" stroke-linecap="round"/><ellipse cx="32" cy="36" rx="12" ry="10" fill="#c8b4a0"/><ellipse cx="32" cy="38" rx="7" ry="6" fill="#dcbcac"/><rect x="25" y="41" width="4" height="7" rx="2" fill="#c8b4a0"/><rect x="35" y="41" width="4" height="7" rx="2" fill="#c8b4a0"/><circle cx="27" cy="48" r="2.5" fill="#d2c3af"/><circle cx="37" cy="48" r="2.5" fill="#d2c3af"/><g transform="rotate(0, 32, 26)"><polygon points="23,19 19,8 27,16" fill="#c8b4a0"/><polygon points="23,18 21,11 25,17" fill="#e6aaaa"/><polygon points="41,19 45,8 37,16" fill="#c8b4a0"/><polygon points="41,18 43,11 39,17" fill="#e6aaaa"/><ellipse cx="32" cy="26" rx="11" ry="10" fill="#c8b4a0"/><ellipse cx="28" cy="25" rx="2.2" ry="2.5" fill="#3c3228"/><ellipse cx="36" cy="25" rx="2.2" ry="2.5" fill="#3c3228"/><circle cx="28.5" cy="24.5" r="0.8" fill="#ffffff"/><circle cx="36.5" cy="24.5" r="0.8" fill="#ffffff"/><circle cx="32" cy="28" r="1.2" fill="#dc8282"/><path d="M30,31 Q32,29.5 34,31"
            stroke="#b47878" stroke-width="1" fill="none"/><line x1="19" y1="27" x2="29" y2="28" stroke="rgba(100,90,80,0.7)" stroke-width="0.6"/><line x1="19" y1="29" x2="29" y2="29" stroke="rgba(100,90,80,0.7)" stroke-width="0.6"/><line x1="45" y1="27" x2="35" y2="28" stroke="rgba(100,90,80,0.7)" stroke-width="0.6"/><line x1="45" y1="29" x2="35" y2="29" stroke="rgba(100,90,80,0.7)" stroke-width="0.6"/><ellipse cx="25" cy="28" rx="3" ry="2" fill="rgba(255,180,180,0.5)"/><ellipse cx="39" cy="28" rx="3" ry="2" fill="rgba(255,180,180,0.5)"/></g></g></defs><use href="#frame-0"/><use href="#frame-1"/><use href="#frame-2"/><use href="#frame-3"/></svg>