<svg xmlns="http://www.w3.org/2000/svg" viewBox="0 0 192 64" width="192" height="64"><defs><g id="frame-0" transform="translate(0, 0)"><path d="M42,34 Q48,24 50.4,18"
            stroke="#beaac6" stroke-width="2.5" fill="none" stroke-linecap="round"/><ellipse cx="32" cy="36" rx="12" ry="10" fill="#c8b4a0"/><ellipse cx="32" cy="38" rx="7" ry="6" fill="#dcbcac"/><rect x="25" y="41" width="4" height="7" rx="2" fill="#c8b4a0"/><rect x="35" y="41" width="4" height="7" rx="2" fill="#c8b4a0"/><circle cx="27" cy="48" r="2.5" fill="#d2c3af"/><circle cx="37" cy="48" r="2.5" fill="#d2c3af"/><g transform="rotate(0, 32, 26)"><polygon points="23,19 19,8 27,16" fill="#c8b4a0"/><polygon points="23,18 21,11 25,17" fill="#e6aaaa"/><polygon points="41,19 45,8 37,16" fill="#c8b4a0"/><polygon points="41,18 43,11 39,17" fill="#e6aaaa"/><ellipse cx="32" cy="26" rx="11" ry="10" fill="#c8b4a0"/><path d="M26,26 Q28,28 30,26" stroke="#3c3228" stroke-width="1.5" fill="none"/><path d="M34,26 Q36,28 38,26" stroke="#3c3228" stroke-width="1.5" fill="none"/><circle cx="32" cy="28" r="1.2" fill="#dc8282"/><path d="M30,31 Q32,29.5 34,31"
            stroke="#b47878" stroke-width="1" fill="none"/><line x1="19" y1="27" x2="29" y2="28" stroke="rgba(100,90,80,0.7)" stroke-width="0.6"/><line x1="19" y1="29" x2="29" y2="29" stroke="rgba(100,90,80,0.7)" stroke-width="0.6"/><line x1="45" y1="27" x2="35" y2="28" stroke="rgba(100,90,80,0.7)" stroke-width="0.6"/><line x1="45" y1="29" x2="35" y2="29" stroke="rgba(100,90,80,0.7)" stroke-width="0.6"/><ellipse cx="25" cy="28" rx="3" ry="2" fill="rgba(255,180,180,0.5)"/><ellipse cx="39" cy="28" rx="3" ry="2" fill="rgba(255,180,180,0.5)"/></g><text x="46" y="18" font-size="6" fill="#9999cc" font-family="sans-serif" font-weight="bold">Z</text><text x="51" y="12" font-size="4" fill="#9999cc" font-family="sans-serif" font-weight="bold">z</text></g><g id="frame-1" transform="translate(64, 0)"><path d="M42,34.707106781186546 Q48,24.707106781186546 50.4,18.707106781186546"
            stroke="#beaac6" stroke-width="2.5" fill="none" stroke-linecap="round"/><ellipse cx="32" cy="36.707106781186546" rx="12" ry="10" fill="#c8b4a0"/><ellipse cx="32" cy="38.707106781186546" rx="7" ry="6" fill="#dcbcac"/><rect x="25" y="41.707106781186546" width="4" height="7" rx="2" fill="#c8b4a0"/><rect x="35" y="41.707106781186546" width="4" height="7" rx="2" fill="#c8b4a0"/><circle cx="27" cy="48.707106781186546" r="2.5" fill="#d2c3af"/><circle cx="37" cy="48.707106781186546" r="2.5" fill="#d2c3af"/><g transform="rotate(0, 32, 26.707106781186546)"><polygon points="23,19.707106781186546 19,8.707106781186546 27,16.707106781186546" fill="#c8b4a0"/><polygon points="23,18.707106781186546 21,11.707106781186546 25,17.707106781186546" fill="#e6aaaa"/><polygon points="41,19.707106781186546 45,8.707106781186546 37,16.707106781186546" fill="#c8b4a0"/><polygon points="41,18.707106781186546 43,11.707106781186546 39,17.707106781186546" fill="#e6aaaa"/><ellipse cx="32" cy="26.707106781186546" rx="11" ry="10" fill="#c8b4a0"/><path d="M26,26.707106781186546 Q28,28.707106781186546 30,26.707106781186546" stroke="#3c3228" stroke-width="1.5" fill="none"/><path d="M34,26.707106781186546 Q36,28.707106781186546 38,26.707106781186546" stroke="#3c3228" stroke-width="1.5" fill="none"/><circle cx="32" cy="28.707106781186546" r="1.2" fill="#dc8282"/><path d="M30,31.707106781186546 Q32,30.207106781186546 34,31.707106781186546"
            stroke="#b47878" stroke-width="1" fill="none"/><line x1="19" y1="27.707106781186546" x2="29" y2="28.707106781186546" stroke="rgba(100,90,80,0.7)" stroke-width="0.6"/><line x1="19" y1="29.707106781186546" x2="29" y2="29.707106781186546" stroke="rgba(100,90,80,0.7)" stroke-width="0.6"/><line x1="45" y1="27.707106781186546" x2="35" y2="28.707106781186546" stroke="rgba(100,90,80,0.7)" stroke-width="0.6"/><line x1="45" y1="29.707106781186546" x2="35" y2="29.707106781186546" stroke="rgba(100,90,80,0.7)" stroke-width="0.6"/><ellipse cx="25" cy="28.707106781186546" rx="3" ry="2" fill="rgba(255,180,180,0.5)"/><ellipse cx="39" cy="28.707106781186546" rx="3" ry="2" fill="rgba(255,180,180,0.5)"/></g><text x="46" y="18.707106781186546" font-size="6" fill="#9999cc" font-family="sans-serif" font-weight="bold">Z</text><text x="51" y="12.707106781186546" font-size="4" fill="#9999cc" font-family="sans-serif" font-weight="bold">z</text></g><g id="frame-2" transform="translate(128, 0)"><path d="M42,33 Q48,23 50.4,17"
            stroke="#beaac6" stroke-width="2.5" fill="none" stroke-linecap="round"/><ellipse cx="32" cy="35" rx="12" ry="10" fill="#c8b4a0"/><ellipse cx="32" cy="37" rx="7" ry="6" fill="#dcbcac"/><rect x="25" y="40" width="4" height="7" rx="2" fill="#c8b4a0"/><rect x="35" y="40" width="4" height="7" rx="2" fill="#c8b4a0"/><circle cx="27" cy="47" r="2.5" fill="#d2c3af"/><circle cx="37" cy="47" r="2.5" fill="#d2c3af"/><g transform="rotate(0, 32, 25)"><polygon points="23,18 19,7 27,15" fill="#c8b4a0"/><polygon points="23,17 21,10 25,16" fill="#e6aaaa"/><polygon points="41,18 45,7 37,15" fill="#c8b4a0"/><polygon points="41,17 43,10 39,16" fill="#e6aaaa"/><ellipse cx="32" cy="25" rx="11" ry="10" fill="#c8b4a0"/><path d="M26,25 Q28,27 30,25" stroke="#3c3228" stroke-width="1.5" fill="none"/><path d="M34,25 Q36,27 38,25" stroke="#3c3228" stroke-width="1.5" fill="none"/><circle cx="32" cy="27" r="1.2" fill="#dc8282"/><path d="M30,30 Q32,28.5 34,30"
            stroke="#b47878" stroke-width="1" fill="none"/><line x1="19" y1="26" x2="29" y2="27" stroke="rgba(100,90,80,0.7)" stroke-width="0.6"/><line x1="19" y1="28" x2="29" y2="28" stroke="rgba(100,90,80,0.7)" stroke-width="0.6"/><line x1="45" y1="26" x2="35" y2="27" stroke="rgba(100,90,80,0.7)" stroke-width="0.6"/><line x1="45" y1="28" x2="35" y2="28" stroke="rgba(100,90,80,0.7)" stroke-width="0.6"/><ellipse cx="25" cy="27" rx="3" ry="2" fill="rgba(255,180,180,0.5)"/><ellipse cx="39" cy="27" rx="3" ry="2" fill="rgba(255,180,180,0.5)"/></g><text x="46" y="17" font-size="6" fill="#9999cc" font-family="sans-serif" font-weight="bold">Z</text><text x="51" y="11" font-size="4" fill="#9999cc" font-family="sans-serif" font-weight="bold">z</text></g></defs><use href="#frame-0"/><use href="#frame-1"/><use href="#frame-2"/></svg>