<svg xmlns="http://www.w3.org/2000/svg" viewBox="0 0 384 64" width="384" height="64"><defs><g id="frame-0" transform="translate(0, 0)"><path d="M42,34 Q50,24 52,18"
            stroke="#beaac6" stroke-width="2.5" fill="none" stroke-linecap="round"/><ellipse cx="32" cy="36" rx="12" ry="10" fill="#c8b4a0"/><ellipse cx="32" cy="38" rx="7" ry="6" fill="#dcbcac"/><rect x="24" y="40" width="4" height="7" rx="2" fill="#c8b4a0" transform="rotate(0,26,40)"/><rect x="36" y="40" width="4" height="7" rx="2" fill="#c8b4a0" transform="rotate(0,38,40)"/><circle cx="26" cy="48" r="2.5" fill="#d2c3af"/><circle cx="38" cy="48" r="2.5" fill="#d2c3af"/><g transform="rotate(0, 32, 26)"><polygon points="23,19 19,8 27,16" fill="#c8b4a0"/><polygon points="23,18 21,11 25,17" fill="#e6aaaa"/><polygon points="41,19 45,8 37,16" fill="#c8b4a0"/><polygon points="41,18 43,11 39,17" fill="#e6aaaa"/><ellipse cx="32" cy="26" rx="11" ry="10" fill="#c8b4a0"/><ellipse cx="28" cy="25" rx="2.2" ry="2.5" fill="#3c3228"/><ellipse cx="36" cy="25" rx="2.2" ry="2.5" fill="#3c3228"/><circle cx="28.5" cy="24.5" r="0.8" fill="#ffffff"/><circle cx="36.5" cy="24.5" r="0.8" fill="#ffffff"/><circle cx="32" cy="28" r="1.2" fill="#dc8282"/><path d="M30,31 Q32,29.5 34,31"
            stroke="#b47878" stroke-width="1" fill="none"/><line x1="19" y1="27" x2="29" y2="28" stroke="rgba(100,90,80,0.7)" stroke-width="0.6"/><line x1="19" y1="29" x2="29" y2="29" stroke="rgba(100,90,80,0.7)" stroke-width="0.6"/><line x1="45" y1="27" x2="35" y2="28" stroke="rgba(100,90,80,0.7)" stroke-width="0.6"/><line x1="45" y1="29" x2="35" y2="29" stroke="rgba(100,90,80,0.7)" stroke-width="0.6"/><ellipse cx="25" cy="28" rx="3" ry="2" fill="rgba(255,180,180,0.5)"/><ellipse cx="39" cy="28" rx="3" ry="2" fill="rgba(255,180,180,0.5)"/></g></g><g id="frame-1" transform="translate(64, 0)"><path d="M42,35.90211303259031 Q52.93892626146236,25.902113032590307 54.35114100916989,19.902113032590307"
            stroke="#beaac6" stroke-width="2.5" fill="none" stroke-linecap="round"/><ellipse cx="32" cy="37.90211303259031" rx="12" ry="10" fill="#c8b4a0"/><ellipse cx="32" cy="39.90211303259031" rx="7" ry="6" fill="#dcbcac"/><rect x="25.42658477444273" y="41.90211303259031" width="4" height="7" rx="2" fill="#c8b4a0" transform="rotate(8.559508646656381,26,41.90211303259031)"/><rect x="34.57341522555727" y="41.90211303259031" width="4" height="7" rx="2" fill="#c8b4a0" transform="rotate(-8.559508646656381,38,41.90211303259031)"/><circle cx="27.42658477444273" cy="49.90211303259031" r="2.5" fill="#d2c3af"/><circle cx="36.57341522555727" cy="49.90211303259031" r="2.5" fill="#d2c3af"/><g transform="rotate(0, 32, 27.902113032590307)"><polygon points="23,20.902113032590307 19,9.902113032590307 27,17.902113032590307" fill="#c8b4a0"/><polygon points="23,19.902113032590307 21,12.902113032590307 25,18.902113032590307" fill="#e6aaaa"/><polygon points="41,20.902113032590307 45,9.902113032590307 37,17.902113032590307" fill="#c8b4a0"/><polygon points="41,19.902113032590307 43,12.902113032590307 39,18.902113032590307" fill="#e6aaaa"/><ellipse cx="32" cy="27.902113032590307" rx="11" ry="10" fill="#c8b4a0"/><ellipse cx="28" cy="26.902113032590307" rx="2.2" ry="2.5" fill="#3c3228"/><ellipse cx="36" cy="26.902113032590307" rx="2.2" ry="2.5" fill="#3c3228"/><circle cx="28.5" cy="26.402113032590307" r="0.8" fill="#ffffff"/><circle cx="36.5" cy="26.402113032590307" r="0.8" fill="#ffffff"/><circle cx="32" cy="29.902113032590307" r="1.2" fill="#dc8282"/><path d="M30,32.90211303259031 Q32,31.402113032590307 34,32.90211303259031"
            stroke="#b47878" stroke-width="1" fill="none"/><line x1="19" y1="28.902113032590307" x2="29" y2="29.902113032590307" stroke="rgba(100,90,80,0.7)" stroke-width="0.6"/><line x1="19" y1="30.902113032590307" x2="29" y2="30.902113032590307" stroke="rgba(100,90,80,0.7)" stroke-width="0.6"/><line x1="45" y1="28.902113032590307" x2="35" y2="29.902113032590307" stroke="rgba(100,90,80,0.7)" stroke-width="0.6"/><line x1="45" y1="30.902113032590307" x2="35" y2="30.902113032590307" stroke="rgba(100,90,80,0.7)" stroke-width="0.6"/><ellipse cx="25" cy="29.902113032590307" rx="3" ry="2" fill="rgba(255,180,180,0.5)"/><ellipse cx="39" cy="29.902113032590307" rx="3" ry="2" fill="rgba(255,180,180,0.5)"/></g></g><g id="frame-2" transform="translate(128, 0)"><path d="M42,35.17557050458495 Q45.24471741852423,25.175570504584947 48.195773934819385,19.175570504584947"
            stroke="#beaac6" stroke-width="2.5" fill="none" stroke-linecap="round"/><ellipse cx="32" cy="37.17557050458495" rx="12" ry="10" fill="#c8b4a0"/><ellipse cx="32" cy="39.17557050458495" rx="7" ry="6" fill="#dcbcac"/><rect x="24.88167787843871" y="41.17557050458495" width="4" height="7" rx="2" fill="#c8b4a0" transform="rotate(5.2900672706322585,26,41.17557050458495)"/><rect x="35.11832212156129" y="41.17557050458495" width="4" height="7" rx="2" fill="#c8b4a0" transform="rotate(-5.2900672706322585,38,41.17557050458495)"/><circle cx="26.88167787843871" cy="49.17557050458495" r="2.5" fill="#d2c3af"/><circle cx="37.11832212156129" cy="49.17557050458495" r="2.5" fill="#d2c3af"/><g transform="rotate(0, 32, 27.175570504584947)"><polygon points="23,20.175570504584947 19,9.175570504584947 27,17.175570504584947" fill="#c8b4a0"/><polygon points="23,19.175570504584947 21,12.175570504584947 25,18.175570504584947" fill="#e6aaaa"/><polygon points="41,20.175570504584947 45,9.175570504584947 37,17.175570504584947" fill="#c8b4a0"/><polygon points="41,19.175570504584947 43,12.175570504584947 39,18.175570504584947" fill="#e6aaaa"/><ellipse cx="32" cy="27.175570504584947" rx="11" ry="10" fill="#c8b4a0"/><ellipse cx="28" cy="26.175570504584947" rx="2.2" ry="2.5" fill="#3c3228"/><ellipse cx="36" cy="26.175570504584947" rx="2.2" ry="2.5" fill="#3c3228"/><circle cx="28.5" cy="25.675570504584947" r="0.8" fill="#ffffff"/><circle cx="36.5" cy="25.675570504584947" r="0.8" fill="#ffffff"/><circle cx="32" cy="29.175570504584947" r="1.2" fill="#dc8282"/><path d="M30,32.17557050458495 Q32,30.675570504584947 34,32.17557050458495"
            stroke="#b47878" stroke-width="1" fill="none"/><line x1="19" y1="28.175570504584947" x2="29" y2="29.175570504584947" stroke="rgba(100,90,80,0.7)" stroke-width="0.6"/><line x1="19" y1="30.175570504584947" x2="29" y2="30.175570504584947" stroke="rgba(100,90,80,0.7)" stroke-width="0.6"/><line x1="45" y1="28.175570504584947" x2="35" y2="29.175570504584947" stroke="rgba(100,90,80,0.7)" stroke-width="0.6"/><line x1="45" y1="30.175570504584947" x2="35" y2="30.175570504584947" stroke="rgba(100,90,80,0.7)" stroke-width="0.6"/><ellipse cx="25" cy="29.175570504584947" rx="3" ry="2" fill="rgba(255,180,180,0.5)"/><ellipse cx="39" cy="29.175570504584947" rx="3" ry="2" fill="rgba(255,180,180,0.5)"/></g></g><g id="frame-3" transform="translate(192, 0)"><path d="M42,35.17557050458495 Q54.75528258147577,25.175570504584947 55.804226065180615,19.175570504584947"
            stroke="#beaac6" stroke-width="2.5" fill="none" stroke-linecap="round"/><ellipse cx="32" cy="37.17557050458495" rx="12" ry="10" fill="#c8b4a0"/><ellipse cx="32" cy="39.17557050458495" rx="7" ry="6" fill="#dcbcac"/><rect x="23.11832212156129" y="41.17557050458495" width="4" height="7" rx="2" fill="#c8b4a0" transform="rotate(-5.290067270632258,26,41.17557050458495)"/><rect x="36.88167787843871" y="41.17557050458495" width="4" height="7" rx="2" fill="#c8b4a0" transform="rotate(5.290067270632258,38,41.17557050458495)"/><circle cx="25.11832212156129" cy="49.17557050458495" r="2.5" fill="#d2c3af"/><circle cx="38.88167787843871" cy="49.17557050458495" r="2.5" fill="#d2c3af"/><g transform="rotate(0, 32, 27.175570504584947)"><polygon points="23,20.175570504584947 19,9.175570504584947 27,17.175570504584947" fill="#c8b4a0"/><polygon points="23,19.175570504584947 21,12.175570504584947 25,18.175570504584947" fill="#e6aaaa"/><polygon points="41,20.175570504584947 45,9.175570504584947 37,17.175570504584947" fill="#c8b4a0"/><polygon points="41,19.175570504584947 43,12.175570504584947 39,18.175570504584947" fill="#e6aaaa"/><ellipse cx="32" cy="27.175570504584947" rx="11" ry="10" fill="#c8b4a0"/><ellipse cx="28" cy="26.175570504584947" rx="2.2" ry="2.5" fill="#3c3228"/><ellipse cx="36" cy="26.175570504584947" rx="2.2" ry="2.5" fill="#3c3228"/><circle cx="28.5" cy="25.675570504584947" r="0.8" fill="#ffffff"/><circle cx="36.5" cy="25.675570504584947" r="0.8" fill="#ffffff"/><circle cx="32" cy="29.175570504584947" r="1.2" fill="#dc8282"/><path d="M30,32.17557050458495 Q32,30.675570504584947 34,32.17557050458495"
            stroke="#b47878" stroke-width="1" fill="none"/><line x1="19" y1="28.175570504584947" x2="29" y2="29.175570504584947" stroke="rgba(100,90,80,0.7)" stroke-width="0.6"/><line x1="19" y1="30.175570504584947" x2="29" y2="30.175570504584947" stroke="rgba(100,90,80,0.7)" stroke-width="0.6"/><line x1="45" y1="28.175570504584947" x2="35" y2="29.175570504584947" stroke="rgba(100,90,80,0.7)" stroke-width="0.6"/><line x1="45" y1="30.175570504584947" x2="35" y2="30.175570504584947" stroke="rgba(100,90,80,0.7)" stroke-width="0.6"/><ellipse cx="25" cy="29.175570504584947" rx="3" ry="2" fill="rgba(255,180,180,0.5)"/><ellipse cx="39" cy="29.175570504584947" rx="3" ry="2" fill="rgba(255,180,180,0.5)"/></g></g><g id="frame-4" transform="translate(256, 0)"><path d="M42,35.90211303259031 Q47.06107373853764,25.902113032590307 49.64885899083011,19.902113032590307"
            stroke="#beaac6" stroke-width="2.5" fill="none" stroke-linecap="round"/><ellipse cx="32" cy="37.90211303259031" rx="12" ry="10" fill="#c8b4a0"/><ellipse cx="32" cy="39.90211303259031" rx="7" ry="6" fill="#dcbcac"/><rect x="22.57341522555727" y="41.90211303259031" width="4" height="7" rx="2" fill="#c8b4a0" transform="rotate(-8.559508646656383,26,41.90211303259031)"/><rect x="37.42658477444273" y="41.90211303259031" width="4" height="7" rx="2" fill="#c8b4a0" transform="rotate(8.559508646656383,38,41.90211303259031)"/><circle cx="24.57341522555727" cy="49.90211303259031" r="2.5" fill="#d2c3af"/><circle cx="39.42658477444273" cy="49.90211303259031" r="2.5" fill="#d2c3af"/><g transform="rotate(0, 32, 27.902113032590307)"><polygon points="23,20.902113032590307 19,9.902113032590307 27,17.902113032590307" fill="#c8b4a0"/><polygon points="23,19.902113032590307 21,12.902113032590307 25,18.902113032590307" fill="#e6aaaa"/><polygon points="41,20.902113032590307 45,9.902113032590307 37,17.902113032590307" fill="#c8b4a0"/><polygon points="41,19.902113032590307 43,12.902113032590307 39,18.902113032590307" fill="#e6aaaa"/><ellipse cx="32" cy="27.902113032590307" rx="11" ry="10" fill="#c8b4a0"/><ellipse cx="28" cy="26.902113032590307" rx="2.2" ry="2.5" fill="#3c3228"/><ellipse cx="36" cy="26.902113032590307" rx="2.2" ry="2.5" fill="#3c3228"/><circle cx="28.5" cy="26.402113032590307" r="0.8" fill="#ffffff"/><circle cx="36.5" cy="26.402113032590307" r="0.8" fill="#ffffff"/><circle cx="32" cy="29.902113032590307" r="1.2" fill="#dc8282"/><path d="M30,32.90211303259031 Q32,31.402113032590307 34,32.90211303259031"
            stroke="#b47878" stroke-width="1" fill="none"/><line x1="19" y1="28.902113032590307" x2="29" y2="29.902113032590307" stroke="rgba(100,90,80,0.7)" stroke-width="0.6"/><line x1="19" y1="30.902113032590307" x2="29" y2="30.902113032590307" stroke="rgba(100,90,80,0.7)" stroke-width="0.6"/><line x1="45" y1="28.902113032590307" x2="35" y2="29.902113032590307" stroke="rgba(100,90,80,0.7)" stroke-width="0.6"/><line x1="45" y1="30.902113032590307" x2="35" y2="30.902113032590307" stroke="rgba(100,90,80,0.7)" stroke-width="0.6"/><ellipse cx="25" cy="29.902113032590307" rx="3" ry="2" fill="rgba(255,180,180,0.5)"/><ellipse cx="39" cy="29.902113032590307" rx="3" ry="2" fill="rgba(255,180,180,0.5)"/></g></g><g id="frame-5" transform="translate(320, 0)"><path d="M42,34 Q50,24 52,18"
            stroke="#beaac6" stroke-width="2.5" fill="none" stroke-linecap="round"/><ellipse cx="32" cy="36" rx="12" ry="10" fill="#c8b4a0"/><ellipse cx="32" cy="38" rx="7" ry="6" fill="#dcbcac"/><rect x="24" y="40" width="4" height="7" rx="2" fill="#c8b4a0" transform="rotate(-2.204364238465236e-15,26,40)"/><rect x="36" y="40" width="4" height="7" rx="2" fill="#c8b4a0" transform="rotate(2.204364238465236e-15,38,40)"/><circle cx="26" cy="48" r="2.5" fill="#d2c3af"/><circle cx="38" cy="48" r="2.5" fill="#d2c3af"/><g transform="rotate(0, 32, 26)"><polygon points="23,19 19,8 27,16" fill="#c8b4a0"/><polygon points="23,18 21,11 25,17" fill="#e6aaaa"/><polygon points="41,19 45,8 37,16" fill="#c8b4a0"/><polygon points="41,18 43,11 39,17" fill="#e6aaaa"/><ellipse cx="32" cy="26" rx="11" ry="10" fill="#c8b4a0"/><ellipse cx="28" cy="25" rx="2.2" ry="2.5" fill="#3c3228"/><ellipse cx="36" cy="25" rx="2.2" ry="2.5" fill="#3c3228"/><circle cx="28.5" cy="24.5" r="0.8" fill="#ffffff"/><circle cx="36.5" cy="24.5" r="0.8" fill="#ffffff"/><circle cx="32" cy="28" r="1.2" fill="#dc8282"/><path d="M30,31 Q32,29.5 34,31"
            stroke="#b47878" stroke-width="1" fill="none"/><line x1="19" y1="27" x2="29" y2="28" stroke="rgba(100,90,80,0.7)" stroke-width="0.6"/><line x1="19" y1="29" x2="29" y2="29" stroke="rgba(100,90,80,0.7)" stroke-width="0.6"/><line x1="45" y1="27" x2="35" y2="28" stroke="rgba(100,90,80,0.7)" stroke-width="0.6"/><line x1="45" y1="29" x2="35" y2="29" stroke="rgba(100,90,80,0.7)" stroke-width="0.6"/><ellipse cx="25" cy="28" rx="3" ry="2" fill="rgba(255,180,180,0.5)"/><ellipse cx="39" cy="28" rx="3" ry="2" fill="rgba(255,180,180,0.5)"/></g></g></defs><use href="#frame-0"/><use href="#frame-1"/><use href="#frame-2"/><use href="#frame-3"/><use href="#frame-4"/><use href="#frame-5"/></svg>